<svg width="219" height="81" viewBox="0 0 219 81" fill="none" xmlns="http://www.w3.org/2000/svg">
<rect x="97" y="1" width="122" height="80" rx="20" fill="white"/>
<path d="M5.056 65H14.336V46.632H28.736V37.8H14.336V28.392H32.704V19.56H5.056V65ZM42.8885 27.752C46.0245 27.752 48.5205 25.256 48.5205 22.184C48.5205 19.112 46.0245 16.616 42.8885 16.616C39.8805 16.616 37.3205 19.112 37.3205 22.184C37.3205 25.256 39.8805 27.752 42.8885 27.752ZM38.5365 65H47.3045V33H38.5365V65ZM55.724 65H64.492V49.384C64.492 43.24 67.5 40.296 71.596 40.296C75.244 40.296 77.228 43.112 77.228 47.72V65H85.996V46.248C85.996 37.928 81.388 32.296 73.644 32.296C69.484 32.296 66.22 34.088 64.492 36.648V33H55.724V65Z" fill="#29374E"/>
<path d="M142.984 65H155.016L132.424 41.384L151.112 19.56H139.656L123.272 38.824V19.56H114.056V65H123.272V44.392L142.984 65ZM162.397 27.752C165.533 27.752 168.03 25.256 168.03 22.184C168.03 19.112 165.533 16.616 162.397 16.616C159.389 16.616 156.829 19.112 156.829 22.184C156.829 25.256 159.389 27.752 162.397 27.752ZM158.045 65H166.813V33H158.045V65ZM191.105 65.384C193.601 65.384 195.201 65.128 196.673 64.68V56.936C195.649 57.32 194.433 57.512 193.089 57.512C189.249 57.512 187.649 55.976 187.649 52.072V40.68H196.673V33H187.649V24.104H178.881V33H172.417V40.68H178.881V53.8C178.881 61.672 184.321 65.384 191.105 65.384Z" fill="#0962E8"/>
</svg>
